# xmcd
#
# Track frame offsets:
#	150
#	11632
#	22453
#	29203
#	40003
#	50203
#	58214
#	71489
#	81014
#	91589
#	101977
#	111052
#	141538
#
# Disc length: 2050 seconds
#
# Revision: 0
# Processed by: cddbd v1.4PL0 Copyright (c) Steve Scherf et al.
# Submitted via: dBpowerAMP V4.0
#
DISCID=c008000d
DTITLE=Various Artist - Bluegrass Legends
DYEAR=1900
DGENRE=Bluegrass
TTITLE0=Roll In My Sweet Baby's Arm
TTITLE1=I Know You're Married
TTITLE2=Rank Strangers
TTITLE3=Freedom Bell
TTITLE4=Blue Eyed Darlin' 
TTITLE5=Dreaming
TTITLE6=Talking Fiddle Blues
TTITLE7=Pardon Me
TTITLE8=Blue Ridge Mountain Blues
TTITLE9=Orange Blossom Special
TTITLE10=Banjo Whizz
TTITLE11=Lonesome Fiddle Blues
TTITLE12=Old Rattler
EXTD=Chilmark Music
EXTT0=
EXTT1=
EXTT2=
EXTT3=
EXTT4=
EXTT5=
EXTT6=
EXTT7=
EXTT8=
EXTT9=
EXTT10=
EXTT11=
EXTT12=
PLAYORDER=
